<svg id="visual" viewBox="0 0 900 675" width="900" height="675" xmlns="http://www.w3.org/2000/svg" xmlns:xlink="http://www.w3.org/1999/xlink" version="1.1"><g stroke-width="1" stroke-linejoin="bevel"><path d="M247 454L220 213L0 412Z" fill="#467a9c" stroke="#467a9c"></path><path d="M220 213L0 166L0 412Z" fill="#5e4669" stroke="#5e4669"></path><path d="M669 159L229 0L220 213Z" fill="#59577e" stroke="#59577e"></path><path d="M220 213L229 0L0 166Z" fill="#5e3d5d" stroke="#5e3d5d"></path><path d="M0 412L0 675L247 454Z" fill="#5b2e44" stroke="#5b2e44"></path><path d="M229 0L0 0L0 166Z" fill="#50688f" stroke="#50688f"></path><path d="M0 675L355 675L247 454Z" fill="#59577e" stroke="#59577e"></path><path d="M247 454L669 159L220 213Z" fill="#556087" stroke="#556087"></path><path d="M355 675L647 503L247 454Z" fill="#4382a0" stroke="#4382a0"></path><path d="M647 503L669 159L247 454Z" fill="#467a9c" stroke="#467a9c"></path><path d="M355 675L603 675L647 503Z" fill="#467a9c" stroke="#467a9c"></path><path d="M669 159L647 0L229 0Z" fill="#556087" stroke="#556087"></path><path d="M900 675L900 461L647 503Z" fill="#4b7196" stroke="#4b7196"></path><path d="M647 503L900 461L669 159Z" fill="#4b7196" stroke="#4b7196"></path><path d="M669 159L900 0L647 0Z" fill="#50688f" stroke="#50688f"></path><path d="M900 461L900 200L669 159Z" fill="#5b2e44" stroke="#5b2e44"></path><path d="M603 675L900 675L647 503Z" fill="#5c4e74" stroke="#5c4e74"></path><path d="M900 200L900 0L669 159Z" fill="#5d3550" stroke="#5d3550"></path></g></svg>